<svg width="32" height="32" viewBox="0 0 32 32" fill="none" xmlns="http://www.w3.org/2000/svg">
<path d="M17.6197 25.6893C17.6485 22.7522 16.9038 20.3637 15.9566 20.3544C15.0094 20.3452 14.2182 22.7187 14.1895 25.6558C14.1608 28.5929 14.9054 30.9815 15.8526 30.9907C16.7999 31 17.5911 28.6265 17.6197 25.6893Z" fill="white"/>
<path d="M12.1261 25.0222C13.7383 22.5669 14.4034 20.155 13.6116 19.6351C12.8197 19.1152 10.8708 20.6841 9.25867 23.1394C7.64644 25.5947 6.98142 28.0065 7.77323 28.5265C8.5651 29.0464 10.5139 27.4775 12.1261 25.0222Z" fill="white"/>
<path d="M7.85877 21.4995C10.5425 20.3058 12.406 18.6364 12.021 17.7709C11.636 16.9053 9.14837 17.1714 6.46459 18.3652C3.78084 19.559 1.91734 21.2283 2.30233 22.0939C2.68731 22.9594 5.17502 22.6933 7.85877 21.4995Z" fill="white"/>
<path d="M11.6989 15.3437C11.843 14.4074 9.6064 13.2862 6.70336 12.8394C3.80025 12.3925 1.33001 12.7893 1.18591 13.7256C1.04181 14.6618 3.2784 15.783 6.18149 16.2298C9.08455 16.6767 11.5548 16.2799 11.6989 15.3437Z" fill="white"/>
<path d="M12.7412 13.1133C13.3685 12.4035 12.0928 10.2512 9.89195 8.3061C7.69105 6.36096 5.39833 5.35951 4.77102 6.06931C4.1437 6.77912 5.41935 8.93138 7.62027 10.8765C9.82117 12.8217 12.1139 13.8231 12.7412 13.1133Z" fill="white"/>
<path d="M14.8169 11.8098C15.7284 11.5519 15.8189 9.0516 15.0192 6.22533C14.2194 3.39903 12.8322 1.31695 11.9207 1.57488C11.0092 1.83281 10.9186 4.33306 11.7184 7.15938C12.5181 9.98562 13.9054 12.0677 14.8169 11.8098Z" fill="white"/>
<path d="M20.4534 7.24729C21.3088 4.4373 21.2676 1.93575 20.3613 1.6599C19.4551 1.38405 18.027 3.43836 17.1717 6.24833C16.3164 9.05829 16.3576 11.5599 17.2638 11.8357C18.1701 12.1115 19.5981 10.0573 20.4534 7.24729Z" fill="white"/>
<path d="M24.4809 11.0442C26.7195 9.14242 28.037 7.01551 27.4236 6.29361C26.8103 5.57169 24.4984 6.52815 22.2599 8.42984C20.0214 10.3316 18.704 12.4585 19.3173 13.1804C19.9306 13.9024 22.2425 12.9459 24.4809 11.0442Z" fill="white"/>
<path d="M25.8126 16.4172C28.724 16.0277 30.9822 14.9508 30.8566 14.0119C30.731 13.073 28.2691 12.6276 25.3577 13.0171C22.4464 13.4066 20.1881 14.4835 20.3137 15.4224C20.4394 16.3613 22.9013 16.8067 25.8126 16.4172Z" fill="white"/>
<path d="M29.5683 22.3622C29.9702 21.5045 28.14 19.7987 25.4803 18.5522C22.8207 17.3058 20.3387 16.9907 19.9367 17.8484C19.5347 18.7062 21.3649 20.412 24.0246 21.6585C26.6843 22.9049 29.1663 23.22 29.5683 22.3622Z" fill="white"/>
<path d="M23.9738 28.6911C24.7757 28.1869 24.1584 25.7624 22.5949 23.2758C21.0315 20.7892 19.1139 19.1822 18.312 19.6864C17.51 20.1906 18.1274 22.6152 19.6908 25.1018C21.2543 27.5883 23.1719 29.1954 23.9738 28.6911Z" fill="white"/>
</svg>
